<?xml version="1.0" standalone="no"?>
<!DOCTYPE svg PUBLIC "-//W3C//DTD SVG 1.1//EN"
  "http://www.w3.org/Graphics/SVG/1.1/DTD/svg11.dtd">
<svg version="1.1" xmlns="http://www.w3.org/2000/svg" xmlns:xlink="http://www.w3.org/1999/xlink" width="1920" height="1080" viewBox="-1040.888888888889 -32 1889.7777777777778 1063" id="ccdiagram"><filter id="grayscale"><feColorMatrix type="matrix" values="0.3333 0.3333 0.3333 0 0 0.3333 0.3333 0.3333 0 0 0.3333 0.3333 0.3333 0 0 0 0 0 1 0"></feColorMatrix></filter><defs><style type="text/css">@import url(&#x27;https://fonts.googleapis.com/css?family=Open+Sans:400,700|Inconsolata:400&#x27;);</style></defs><g>0<g pointer-events="auto"></g>0<g pointer-events="auto"></g><g></g><g pointer-events="auto"></g><g></g><g pointer-events="auto"></g><g pointer-events="none"></g><g pointer-events="auto"><g><g cursor="cell"><line x1="-461" y1="525" x2="-426" y2="505" stroke="red" stroke-width="8" opacity="0"></line><line x1="-461" y1="525" x2="-426" y2="505" stroke="#000000" stroke-width="2" stroke-linecap="round"></line><polygon points="-416 500, -442 505, -428 507, -425 514, -416 500" stroke-linejoin="round" fill="#000000" stroke="#000000" stroke-width="1"></polygon></g></g><g><g cursor="cell"><line x1="-51" y1="289" x2="-10" y2="265" stroke="red" stroke-width="8" opacity="0"></line><line x1="-51" y1="289" x2="-10" y2="265" stroke="#000000" stroke-width="2" stroke-linecap="round"></line><polygon points="0 259, -26 264, -12 266, -9 274, 0 259" stroke-linejoin="round" fill="#000000" stroke="#000000" stroke-width="1"></polygon></g></g></g><g pointer-events="auto"><g opacity="1"><g id="0a78a28c-082f-49c3-a5d2-9be04a8589f5" transform="translate(0 0)"><svg x="-16" y="155" height="113.438" width="96" viewBox="0 0 25.4 30.014"><g transform="translate(412.599 -86.957)"><path d="M-412.333 102.348v4.786l8.29 4.785h8.289l8.29-4.785v-4.786l-8.29-4.786h-8.29z" fill="#3c3c3c" fill-rule="evenodd"></path><path d="M-395.754 111.92l8.29-4.786v4.785l-8.29 4.786z" fill="#090909" fill-rule="evenodd"></path><path d="M-404.044 111.92h8.29v4.785h-8.29z" fill="#232323" fill-rule="evenodd"></path><path d="M-412.333 107.134v4.785l8.29 4.786v-4.786z" fill="#232323" fill-rule="evenodd"></path><path d="M-412.333 107.134l8.29 4.785h8.289l8.29-4.785M-404.044 111.92v4.785M-395.754 111.92v4.785" fill="none" stroke="#5e5e5e" stroke-width=".26588"></path><path d="M-412.333 102.348v9.571l8.29 4.786h8.289l8.29-4.786v-9.571l-8.29-4.786h-8.29z" fill="none" stroke="#000000" stroke-width=".53176"></path><path d="M-412.333 97.178v4.786l8.29 4.786h8.289l8.29-4.786v-4.786l-8.29-4.786h-8.29z" fill="#3c3c3c" fill-rule="evenodd"></path><path d="M-395.754 106.75l8.29-4.786v4.786l-8.29 4.786z" fill="#090909" fill-rule="evenodd"></path><path d="M-404.044 106.75h8.29v4.786h-8.29z" fill="#232323" fill-rule="evenodd"></path><path d="M-412.333 101.964v4.786l8.29 4.786v-4.786z" fill="#232323" fill-rule="evenodd"></path><path d="M-412.333 101.964l8.29 4.786h8.289l8.29-4.786M-404.044 106.75v4.786M-395.754 106.75v4.786" fill="none" stroke="#5e5e5e" stroke-width=".266"></path><path d="M-412.333 97.178v9.572l8.29 4.786h8.289l8.29-4.786v-9.572l-8.29-4.786h-8.29z" fill="none" stroke="#000000" stroke-width=".532"></path><path d="M-412.333 92.01v4.785l8.29 4.786h8.289l8.29-4.786v-4.786l-8.29-4.786h-8.29z" fill="#3c3c3c" fill-rule="evenodd"></path><path d="M-395.754 101.58l8.29-4.785v4.786l-8.29 4.786z" fill="#090909" fill-rule="evenodd"></path><path d="M-404.044 101.58h8.29v4.787h-8.29z" fill="#232323" fill-rule="evenodd"></path><path d="M-412.333 96.795v4.786l8.29 4.786v-4.786z" fill="#232323" fill-rule="evenodd"></path><path d="M-412.333 96.795l8.29 4.786h8.289l8.29-4.786M-404.044 101.58v4.787M-395.754 101.58v4.787" fill="none" stroke="#5e5e5e" stroke-width=".266"></path><path d="M-412.333 92.01v9.57l8.29 4.787h8.289l8.29-4.786v-9.572l-8.29-4.786h-8.29z" fill="none" stroke="#000000" stroke-width=".532"></path><circle cx="-136.478" cy="325.284" fill="#f4b934" r="5.801" transform="scale(1.22475 .7071) rotate(45)"></circle><g style="line-height:0%" font-family="sans-serif" font-size="3.191" stroke-width=".266"><path style="line-height:1.25;-inkscape-font-specification:&#x27;Droid Serif&#x27;" d="M-399.242 93.57l.48-.601q.222-.275.177-.448-.04-.17-.467-.416l-.507-.293 1.065-.614.937.541q.825.476.92.934.1.46-.417 1.114l-3.452 4.39-1.622-.937 1.654-2.121-3.729.923-1.622-.936z" fill="#fff" font-family="Droid Serif" font-size="9.971"></path></g></g></svg></g></g><g opacity="1"><g id="67c58755-a503-45c0-841c-bccd52486897" transform="translate(0 0)"><svg x="-272" y="230" height="165.108" width="227" viewBox="0 0 60.06 43.685"><path d="M2647.212-1556.832l-31.177 18-31.177-18v-36l31.177-18 31.177 18z" fill="#d2d2d4" stroke="#83838a" stroke-width="1.723" transform="matrix(0 -.16718 -.14432 -.08359 -188.401 313.367)"></path><path d="M2.895 20.22l5.302 3.066 33.275-19.33L36.276.947z" fill="#ececed" fill-rule="evenodd" stroke="#83838a" stroke-width=".26458400000000004"></path><path d="M2647.212-1556.832l-31.177 18-31.177-18v-36l31.177-18 31.177 18z" fill="#d2d2d4" stroke="#83838a" stroke-width="1.723" transform="matrix(0 -.16718 -.14432 -.08359 -213.883 331.997)"></path><path d="M2647.212-1556.832l-31.177 18-31.177-18v-36l31.177-18 31.177 18z" fill="#d2d2d4" stroke="#83838a" stroke-width="1.703" transform="matrix(0 -.16718 -.14432 -.08359 -213.99 342.365)"></path><path d="M2647.212-1556.832l-31.177 18-31.177-18v-36l31.177-18 31.177 18z" fill="#d2d2d4" stroke="#83838a" stroke-width="1.703" transform="matrix(0 -.16718 -.14432 -.08359 -221.782 332.64)"></path><path d="M2647.212-1556.832l-31.177 18-31.177-18v-36l31.177-18 31.177 18z" fill="#d2d2d4" stroke="#83838a" stroke-width="1.723" transform="matrix(0 -.16718 -.14432 -.08359 -180.502 312.725)"></path><path d="M2647.212-1556.832l-31.177 18-31.177-18v-36l31.177-18 31.177 18z" fill="#d2d2d4" stroke="#83838a" stroke-width="1.723" transform="matrix(0 -.16718 -.14432 -.08359 -180.608 323.092)"></path><path d="M2647.212-1556.832l-31.177 18-31.177-18v-36l31.177-18 31.177 18z" fill="#d2d2d4" stroke="#83838a" stroke-width="1.723" transform="matrix(0 -.16718 -.14432 -.08359 -172.709 322.45)"></path><path d="M23.718 32.238l33.38-19.272M26.381 39.03l33.381-19.273M23.783 42.737l33.382-19.272M15.884 43.379l33.381-19.273M18.588 29.304l33.295-19.35" fill="none" stroke="#83838a" stroke-width=".26756057000000005"></path><path d="M23.783 32.313l2.598 6.717 33.381-19.273-2.663-6.791z" fill="#b8b8bb" fill-rule="evenodd" stroke="#83838a" stroke-width=".26458400000000004"></path><path d="M2647.212-1556.832l-31.177 18-31.177-18v-36l31.177-18 31.177 18z" fill="#d2d2d4" stroke="#83838a" stroke-width="1.703" transform="matrix(0 -.16718 -.14432 -.08359 -206.09 341.723)"></path><path d="M15.99 22.587L49.371 3.315M10.795 19.578L44.176.306M2.855 20.193L36.235.92" fill="none" stroke="#83838a" stroke-width=".26756057000000005"></path><path d="M26.381 39.03l-2.598 3.707 33.382-19.272 2.597-3.708z" fill="#9d9da3" fill-rule="evenodd" stroke="#83838a" stroke-width=".26458400000000004"></path><path d="M18.482 39.672l-2.598 3.707 4.51-2.604z" fill="#9d9da3" fill-rule="evenodd" stroke="#83838a" stroke-width=".26756057000000005"></path><path d="M18.588 29.304l5.195 3.01L57.1 12.965l-5.216-3.012z" fill="#ececed" fill-rule="evenodd" stroke="#83838a" stroke-width=".26458400000000004"></path><path d="M15.99 22.587l2.555 6.678 33.338-19.31-2.512-6.64z" fill="#b8b8bb" fill-rule="evenodd" stroke="#83838a" stroke-width=".26458400000000004"></path><path d="M21.836 11.715l-.927.535-.463-.267.927-.535zm1.622-.134l-1.854 1.07-.463-.267 1.854-1.07zm-.232 2.275l-.231.134-3.708-2.141 2.78-1.606.233.134-2.55 1.472 3.477 2.007zm.464-1.606l-1.39.803-.464-.267 1.39-.803zm1.39 0l-2.085 1.204-.464-.267 2.086-1.204z" fill="#4286c5"></path><path d="M10.795 19.578l5.195 3.01L49.371 3.314 44.176.305z" fill="#ececed" fill-rule="evenodd" stroke="#83838a" stroke-width=".26458400000000004"></path><path d="M2647.212-1556.832l-31.177 18-31.177-18v-36l31.177-18 31.177 18z" fill="#5b5b62" stroke="#000000" stroke-width="2.392" transform="matrix(0 -.11907 -.10278 -.05953 -148.476 244.02)"></path><path d="M.298 23.927l2.597-3.707L36.276.947l3.39 1.963 4.51-2.604 5.195 3.009 2.512 6.64 5.216 3.01 2.663 6.792-2.597 3.708-33.382 19.272-3.394-1.966-4.505 2.608-5.195-3.01-2.598-6.716-5.196-3.009z" fill="none" stroke="#000000" stroke-width=".5291680000000001"></path><path d="M2647.212-1556.832l-31.177 18-31.177-18v-36l31.177-18 31.177 18z" fill="#5b5b62" stroke="#000000" stroke-width="2.392" transform="matrix(0 -.11907 -.10278 -.05953 -140.683 253.747)"></path><path d="M2647.212-1556.832l-31.177 18-31.177-18v-36l31.177-18 31.177 18z" fill="#5b5b62" stroke="#000000" stroke-width="2.392" transform="matrix(0 -.11907 -.10278 -.05953 -148.583 254.388)"></path><path d="M2647.212-1556.832l-31.177 18-31.177-18v-36l31.177-18 31.177 18z" fill="#5b5b62" stroke="#000000" stroke-width="2.392" transform="matrix(0 -.11907 -.10278 -.05953 -156.376 244.663)"></path><path d="M29.215 11.067l-.927.535-.464-.267.927-.535zm1.622-.134l-1.854 1.07-.464-.267 1.854-1.07zm-.232 2.275l-.232.134-3.708-2.141 2.781-1.606.232.134-2.55 1.472 3.477 2.007zm.464-1.606l-1.391.803-.463-.267 1.39-.803zm1.39 0l-2.086 1.205-.463-.268 2.086-1.204zM37.148 20.465l-.927.535-.463-.268.927-.535zm1.623-.134l-1.855 1.07-.463-.267 1.854-1.07zm-.232 2.275l-.232.133-3.708-2.14 2.78-1.606.233.134-2.55 1.472 3.477 2.007zM39.002 21l-1.39.803-.464-.268 1.39-.803zm1.39 0l-2.085 1.204-.463-.268 2.085-1.204z" fill="#4286c5"></path></svg></g></g><g opacity="1"><g id="64c674e3-d4ae-4814-9814-067653adfd1c" transform="translate(0 0)"><svg x="-432" y="395" height="113.438" width="96" viewBox="0 0 25.4 30.014"><g transform="translate(412.599 -86.957)"><path d="M-412.333 102.348v4.786l8.29 4.785h8.289l8.29-4.785v-4.786l-8.29-4.786h-8.29z" fill="#3c3c3c" fill-rule="evenodd"></path><path d="M-395.754 111.92l8.29-4.786v4.785l-8.29 4.786z" fill="#090909" fill-rule="evenodd"></path><path d="M-404.044 111.92h8.29v4.785h-8.29z" fill="#232323" fill-rule="evenodd"></path><path d="M-412.333 107.134v4.785l8.29 4.786v-4.786z" fill="#232323" fill-rule="evenodd"></path><path d="M-412.333 107.134l8.29 4.785h8.289l8.29-4.785M-404.044 111.92v4.785M-395.754 111.92v4.785" fill="none" stroke="#5e5e5e" stroke-width=".26588"></path><path d="M-412.333 102.348v9.571l8.29 4.786h8.289l8.29-4.786v-9.571l-8.29-4.786h-8.29z" fill="none" stroke="#000000" stroke-width=".53176"></path><path d="M-412.333 97.178v4.786l8.29 4.786h8.289l8.29-4.786v-4.786l-8.29-4.786h-8.29z" fill="#3c3c3c" fill-rule="evenodd"></path><path d="M-395.754 106.75l8.29-4.786v4.786l-8.29 4.786z" fill="#090909" fill-rule="evenodd"></path><path d="M-404.044 106.75h8.29v4.786h-8.29z" fill="#232323" fill-rule="evenodd"></path><path d="M-412.333 101.964v4.786l8.29 4.786v-4.786z" fill="#232323" fill-rule="evenodd"></path><path d="M-412.333 101.964l8.29 4.786h8.289l8.29-4.786M-404.044 106.75v4.786M-395.754 106.75v4.786" fill="none" stroke="#5e5e5e" stroke-width=".266"></path><path d="M-412.333 97.178v9.572l8.29 4.786h8.289l8.29-4.786v-9.572l-8.29-4.786h-8.29z" fill="none" stroke="#000000" stroke-width=".532"></path><path d="M-412.333 92.01v4.785l8.29 4.786h8.289l8.29-4.786v-4.786l-8.29-4.786h-8.29z" fill="#3c3c3c" fill-rule="evenodd"></path><path d="M-395.754 101.58l8.29-4.785v4.786l-8.29 4.786z" fill="#090909" fill-rule="evenodd"></path><path d="M-404.044 101.58h8.29v4.787h-8.29z" fill="#232323" fill-rule="evenodd"></path><path d="M-412.333 96.795v4.786l8.29 4.786v-4.786z" fill="#232323" fill-rule="evenodd"></path><path d="M-412.333 96.795l8.29 4.786h8.289l8.29-4.786M-404.044 101.58v4.787M-395.754 101.58v4.787" fill="none" stroke="#5e5e5e" stroke-width=".266"></path><path d="M-412.333 92.01v9.57l8.29 4.787h8.289l8.29-4.786v-9.572l-8.29-4.786h-8.29z" fill="none" stroke="#000000" stroke-width=".532"></path><circle cx="-136.478" cy="325.284" fill="#f4b934" r="5.801" transform="scale(1.22475 .7071) rotate(45)"></circle><g style="line-height:0%" font-family="sans-serif" font-size="3.191" stroke-width=".266"><path style="line-height:1.25;-inkscape-font-specification:&#x27;Droid Serif&#x27;" d="M-399.242 93.57l.48-.601q.222-.275.177-.448-.04-.17-.467-.416l-.507-.293 1.065-.614.937.541q.825.476.92.934.1.46-.417 1.114l-3.452 4.39-1.622-.937 1.654-2.121-3.729.923-1.622-.936z" fill="#fff" font-family="Droid Serif" font-size="9.971"></path></g></g></svg></g></g><g opacity="1"><g id="a9fe5664-0ab6-4d03-bca0-e273d8be5e0b" transform="translate(0 0)"><svg x="-627" y="491" height="125.699" width="167" viewBox="0 0 44.185 33.258"><path d="M7.993 22.497L41.235 3.305M10.645 29.26l33.242-19.192M8.058 32.952L41.3 13.76" fill="none" stroke="#83838a" stroke-width=".26653600000000005"></path><path d="M8.058 22.572l2.587 6.688 33.242-19.192-2.652-6.763z" fill="#b8b8bb" fill-rule="evenodd" stroke="#83838a" stroke-width=".26453698000000003"></path><path d="M2647.212-1556.832l-31.177 18-31.177-18v-36l31.177-18 31.177 18z" fill="#d2d2d4" stroke="#83838a" stroke-width="1.711" transform="matrix(0 -.16648 -.14372 -.08324 -220.857 330.693)"></path><path d="M10.645 29.26l-2.587 3.692L41.3 13.76l2.587-3.692z" fill="#9d9da3" fill-rule="evenodd" stroke="#83838a" stroke-width=".26453698000000003"></path><path d="M2.885 19.575l5.173 2.997L41.235 3.305l-5.194-3z" fill="#ececed" fill-rule="evenodd" stroke="#83838a" stroke-width=".26453698000000003"></path><path d="M2647.212-1556.832l-31.177 18-31.177-18v-36l31.177-18 31.177 18z" fill="#5b5b62" stroke="#000000" stroke-width="2.402" transform="matrix(0 -.11857 -.10236 -.05928 -155.723 243.083)"></path><path d="M21.367 10.772l-.923.533-.461-.266.923-.533zm1.616-.133l-1.846 1.066-.462-.266 1.846-1.066zm-.23 2.265l-.232.134-3.692-2.132 2.77-1.6.23.134-2.539 1.466 3.462 1.998zm.46-1.599l-1.384.8-.462-.267 1.385-.799zm1.385 0l-2.077 1.2-.461-.267 2.077-1.2z" fill="#4286c5"></path><path d="M.298 23.267l2.587-3.692L36.04.305l5.194 3 2.652 6.763L41.3 13.76 8.058 32.952l-5.173-2.996z" fill="none" stroke="#000000" stroke-width=".5290739600000001"></path></svg></g></g></g><g pointer-events="auto"></g><g pointer-events="auto"></g><g pointer-events="auto"><g opacity="1"><g id="1b4cc81b-c44e-4540-957e-8f70f1df2415" transform="translate(0 0)"><svg x="-480" y="592" overflow="visible"><text stroke="#ffffff" stroke-width="4" font-family="Open Sans" y="36.5" font-size="25pt" fill="#000000" font-weight="bold" transform="matrix(0.707 0.409 -0.707 0.409 0 0)" xml:space="preserve"><tspan x="8" dy="0">One Partition</tspan><tspan x="8" dy="1.1em">~$12/month</tspan></text><text font-family="Open Sans" y="36.5" font-size="25pt" fill="#000000" font-weight="bold" transform="matrix(0.707 0.409 -0.707 0.409 0 0)" xml:space="preserve"><tspan x="8" dy="0">One Partition</tspan><tspan x="8" dy="1.1em">~$12/month</tspan></text></svg></g></g><g opacity="1"><g id="d737ca54-55c0-471f-9a76-124b9cd5723e" transform="translate(0 0)"><svg x="-320" y="500" overflow="visible"><text stroke="#ffffff" stroke-width="4" font-family="Open Sans" y="36.5" font-size="25pt" fill="#000000" font-weight="bold" transform="matrix(0.707 0.409 -0.707 0.409 0 0)" xml:space="preserve"><tspan x="8" dy="0">One Instance</tspan></text><text font-family="Open Sans" y="36.5" font-size="25pt" fill="#000000" font-weight="bold" transform="matrix(0.707 0.409 -0.707 0.409 0 0)" xml:space="preserve"><tspan x="8" dy="0">One Instance</tspan></text></svg></g></g><g opacity="1"><g id="a7b59541-5667-46c5-bbec-ae697f8a0382" transform="translate(0 0)"><svg x="-80" y="361" overflow="visible"><text stroke="#ffffff" stroke-width="4" font-family="Open Sans" y="36.5" font-size="25pt" fill="#000000" font-weight="bold" transform="matrix(0.707 0.409 -0.707 0.409 0 0)" xml:space="preserve"><tspan x="8" dy="0">Four Partitions</tspan><tspan x="8" dy="1.1em">~$48/month</tspan></text><text font-family="Open Sans" y="36.5" font-size="25pt" fill="#000000" font-weight="bold" transform="matrix(0.707 0.409 -0.707 0.409 0 0)" xml:space="preserve"><tspan x="8" dy="0">Four Partitions</tspan><tspan x="8" dy="1.1em">~$48/month</tspan></text></svg></g></g><g opacity="1"><g id="d21437cf-c080-43a5-8ab2-68b3d6c9ebdf" transform="translate(0 0)"><svg x="96" y="259" overflow="visible"><text stroke="#ffffff" stroke-width="4" font-family="Open Sans" y="36.5" font-size="25pt" fill="#000000" font-weight="bold" transform="matrix(0.707 0.409 -0.707 0.409 0 0)" xml:space="preserve"><tspan x="8" dy="0">Four Instances</tspan><tspan x="8" dy="1.1em"> </tspan></text><text font-family="Open Sans" y="36.5" font-size="25pt" fill="#000000" font-weight="bold" transform="matrix(0.707 0.409 -0.707 0.409 0 0)" xml:space="preserve"><tspan x="8" dy="0">Four Instances</tspan><tspan x="8" dy="1.1em"> </tspan></text></svg></g></g></g><g></g></g></svg>